HIERARCHY
ROOT RootJoint
{
    OFFSET   0.000000   0.000000   0.000000
    CHANNELS 6 Xposition Yposition Zposition Xrotation Yrotation Zrotation
    JOINT lHip
    {
        OFFSET   0.100000  -0.051395   0.000000
        CHANNELS 3 Xrotation Yrotation Zrotation
        JOINT lKnee
        {
            OFFSET   0.000000  -0.410000   0.000000
            CHANNELS 3 Xrotation Yrotation Zrotation
            JOINT lAnkle
            {
                OFFSET   0.000000  -0.390000   0.000000
                CHANNELS 3 Xrotation Yrotation Zrotation
                JOINT lToeJoint
                {
                    OFFSET   0.000000  -0.050000   0.130000
                    CHANNELS 3 Xrotation Yrotation Zrotation
                    End Site
                    {
                        OFFSET   0.010000   0.002000   0.060000
                    }
                }
            }
        }
    }
    JOINT rHip
    {
        OFFSET  -0.100000  -0.051395   0.000000
        CHANNELS 3 Xrotation Yrotation Zrotation
        JOINT rKnee
        {
            OFFSET   0.000000  -0.410000   0.000000
            CHANNELS 3 Xrotation Yrotation Zrotation
            JOINT rAnkle
            {
                OFFSET   0.000000  -0.390000   0.000000
                CHANNELS 3 Xrotation Yrotation Zrotation
                JOINT rToeJoint
                {
                    OFFSET   0.000000  -0.050000   0.130000
                    CHANNELS 3 Xrotation Yrotation Zrotation
                    End Site
                    {
                        OFFSET  -0.010000   0.002000   0.060000
                    }
                }
            }
        }
    }
    JOINT pelvis_lowerback
    {
        OFFSET   0.000000   0.093605   0.000000
        CHANNELS 3 Xrotation Yrotation Zrotation
        JOINT lowerback_torso
        {
            OFFSET   0.000000   0.100000   0.000000
            CHANNELS 3 Xrotation Yrotation Zrotation
            JOINT torso_head
            {
                OFFSET   0.000000   0.282350   0.000000
                CHANNELS 3 Xrotation Yrotation Zrotation
                End Site
                {
                    OFFSET   0.000000   0.192650   0.000000
                }
            }
            JOINT lTorso_Clavicle
            {
                OFFSET   0.001000   0.157500   0.000000
                CHANNELS 3 Xrotation Yrotation Zrotation
                JOINT lShoulder
                {
                    OFFSET   0.117647   0.000000   0.000000
                    CHANNELS 3 Xrotation Yrotation Zrotation
                    JOINT lElbow
                    {
                        OFFSET   0.245000   0.000000   0.000000
                        CHANNELS 3 Xrotation Yrotation Zrotation
                        JOINT lWrist
                        {
                            OFFSET   0.240000   0.000000   0.000000
                            CHANNELS 3 Xrotation Yrotation Zrotation
                            End Site
                            {
                                OFFSET   0.116353  -0.002500   0.000000
                            }
                        }
                    }
                }
            }
            JOINT rTorso_Clavicle
            {
                OFFSET  -0.001000   0.157500   0.000000
                CHANNELS 3 Xrotation Yrotation Zrotation
                JOINT rShoulder
                {
                    OFFSET  -0.117647   0.000000   0.000000
                    CHANNELS 3 Xrotation Yrotation Zrotation
                    JOINT rElbow
                    {
                        OFFSET  -0.245000   0.000000   0.000000
                        CHANNELS 3 Xrotation Yrotation Zrotation
                        JOINT rWrist
                        {
                            OFFSET  -0.240000   0.000000   0.000000
                            CHANNELS 3 Xrotation Yrotation Zrotation
                            End Site
                            {
                                OFFSET  -0.116353  -0.002500   0.000000
                            }
                        }
                    }
                }
            }
        }
    }
}
MOTION
Frames: 11
Frame Time:   0.010000
  0.000000   0.000000   0.000000   0.000000   0.000000   0.000000   0.000000   0.000000   0.000000   0.000000   0.000000   0.000000   0.000000   0.000000   0.000000   0.000000   0.000000   0.000000   0.000000   0.000000   0.000000   0.000000   0.000000   0.000000   0.000000   0.000000   0.000000   0.000000   0.000000   0.000000   0.000000   0.000000   0.000000   0.000000   0.000000   0.000000   0.000000   0.000000   0.000000   0.000000   0.000000   0.000000   0.000000   0.000000   0.000000   0.000000   0.000000   0.000000   0.000000   0.000000   0.000000   0.000000   0.000000   0.000000   0.000000   0.000000   0.000000   0.000000   0.000000   0.000000   0.000000   0.000000   0.000000
  0.550080   0.532956   0.523928  38.777733  27.195746  47.029037 -53.814904  66.575588  82.464759  79.700197  52.431917  20.316237  26.055450  53.645514  30.934364  29.801804  55.972234  35.106879   3.021904  13.917549  47.980320  94.365791  40.581836 -13.538107  32.310340  55.100467  43.810644  34.131695  59.659295  32.604335  42.363523  54.879142  28.302490  65.392856  51.957483  15.678008  82.998372  55.677678  -0.576695  61.064530  37.024684 -15.666854  89.038192   5.484787   0.037101  30.531048  24.705132  64.848431  73.486313  57.060808  -6.116369  -3.634546  53.269351  88.589209  41.035724  86.542832  51.164076 103.331038  85.710006 -64.281545  77.867291  60.288298  -4.230110
  0.548873   0.553237   0.530372  39.623758  25.369703  46.447518 -55.725638  63.254278  88.057637  74.963152  57.902636  26.657083  23.954363  57.231568  37.734050  34.811230  56.461341  30.308762   0.925933  13.606071  56.211534  93.952892  40.897859 -12.149368  28.022650  54.615871  49.549507  33.649437  57.241189  32.577104  43.348811  55.260434  28.048115  61.879276  55.469122  23.111423  91.506447  58.490972 -14.838196  57.169623  35.173355 -13.207690  89.308078   5.468384   0.027820  33.303625  24.854822  60.595860  75.651649  59.708061 -10.830841   2.965418  54.248853  85.908710  41.604725  87.154194  50.242279 105.883260  83.058947 -68.272502  74.302883  62.778475  -3.898683
  0.534421   0.540012   0.516146  43.783005  27.068893  42.172732 -52.829752  63.445132  84.427288  75.763762  58.004934  25.106188  28.363886  57.108422  30.515247  35.282521  57.470433  28.451638   2.844292  13.503332  49.199444  94.546074  39.655268 -13.877090  26.416566  53.396842  49.809269  34.666123  57.993580  32.140074  46.418612  54.276027  26.899580  59.605309  60.099034  22.519780  91.003397  55.543929 -12.964075  59.706718  36.797126 -15.299364  89.437578   5.463169   0.020751  31.330795  24.122788  61.833650  77.899528  62.033602 -11.434528   1.347272  55.518261  86.233183  40.628666  87.160618  51.176861 106.343890  83.409667 -69.203792  83.922680  63.370789 -11.547133
  0.583113   0.581651   0.563281  38.877787  26.563684  49.942474 -52.573091  64.734648  83.071270  77.625599  57.742045  21.990799  20.507587  58.447919  40.492532  40.546010  58.319091  26.685470   2.438662  14.145615  55.512824  95.893560  42.921431 -16.171701  25.163096  58.574154  52.517818  35.211340  58.770288  33.067967  42.790655  56.687138  27.919654  68.113874  54.231160  16.843299  84.635222  57.828632  -1.985940  61.728770  36.838483 -16.176473  89.544387   5.454452   0.019284  31.437022  25.288013  64.858923  76.739405  57.432507  -8.828571  -0.173032  52.831542  87.520919  40.847678  87.447150  50.787202 105.139085  85.745709 -69.695649  81.674493  62.513841  -7.744850
  0.532879   0.572833   0.619697  47.305418  27.635739  38.562773 -54.760081  64.984387  85.319103  74.253505  58.514158  27.523157  33.618597  57.514376  30.535393  38.328451  54.859039  27.964901   2.121896  13.342452  56.863201  94.503091  38.628028 -13.956116  21.434865  52.996269  55.936302  32.446161  55.447167  31.463872  41.321597  56.552225  26.815791  63.485738  55.627707  20.536894  91.178738  60.511132 -13.659326  56.868396  37.776437 -14.435898  89.475905   5.460210   0.020060  29.705605  24.616944  66.099267  78.552007  58.666483 -10.572509   0.318092  55.358841  87.142437  40.940962  87.365036  50.748919 105.812717  84.813136 -69.306972  80.923272  62.930026  -7.716598
  0.554111   0.551495   0.518830  40.115810  27.607223  46.784618 -55.327716  63.691173  86.944869  75.501247  56.680785  26.340342  29.714108  56.007020  31.721107  37.576987  60.066115  27.798786   1.629932  14.916318  56.746297  94.689374  43.002567 -13.521282  20.774942  58.284991  53.338536  31.947234  56.834057  35.998093  47.736751  56.216820  23.456674  63.998155  55.397836  21.132017  92.784554  60.164797 -14.793216  58.346705  34.090586 -12.628931  89.347823   5.465257   0.027162  28.996942  24.510238  67.122486  81.685232  58.929638 -14.069862   0.218189  55.157732  87.411128  40.763925  87.501681  50.834029 108.088121  81.262597 -68.738203  80.622931  63.303452  -9.478955
  0.542415   0.583631   0.593849  42.081798  26.412474  44.519703 -54.299348  64.370242  85.135622  76.621378  58.655957  23.350205  29.466406  57.752216  29.798162  39.721450  55.982288  26.530057   2.586682  13.563445  51.522876  93.936984  40.641420 -11.921813  39.706732  54.568591  43.637087  30.838661  55.497220  34.738275  41.355597  55.921095  27.354635  64.157479  60.023892  17.197090  89.879722  57.754844 -11.418060  58.380276  39.484929 -16.553950  89.538793   5.454437   0.019798  30.734057  25.033577  65.399151  78.769881  57.155080 -11.065992   0.257429  53.920820  87.774623  40.817753  87.628269  50.703299 106.292779  83.015494 -69.749287  77.890107  63.439426  -3.373359
  0.538733   0.575226   0.547752  44.979907  27.943613  44.838159 -58.306045  65.244364  88.715750  75.985897  58.333671  24.622391  14.151234  58.237420  41.710272  37.223789  56.800529  29.602313   1.347626  15.105280  52.494098  95.835226  43.644298 -15.695932  22.759825  55.601929  57.202020  31.173856  57.899915  35.489804  42.258671  56.720387  28.849403  64.907658  53.757016  19.848394  87.220812  56.012116  -5.286534  56.751418  34.653947 -12.870882  89.408463   5.461357   0.025278  30.539573  25.184027  66.161200  79.723720  54.343465  -8.551667   1.680440  53.650720  86.923000  41.130331  87.711905  50.345966 104.477346  85.679636 -68.476295  79.117947  63.186756  -6.102631
  0.555670   0.571277   0.571336  41.494098  25.352477  47.285642 -55.377953  62.849823  88.263811  77.596524  58.035996  21.922702  27.815325  56.091280  31.531132  43.110676  56.381849  26.442069   1.654210  13.935833  55.749705  94.830631  41.489785 -14.261674  25.213279  53.729431  55.230172  32.460800  58.262228  31.993797  39.502678  56.554387  31.088400  61.816900  55.096428  24.838241  85.164547  57.771003  -2.436970  60.811304  36.124478 -15.423064  89.420224   5.467957   0.017659  31.629835  25.593380  65.347257  74.061232  59.009344  -2.363785  -0.709530  54.409408  87.886558  41.535594  87.430275  50.132230 105.363575  84.961672 -68.191381  73.469872  63.927782  -0.881206
  0.568952   0.579079   0.529018  38.336042  29.870527  50.936355 -54.996885  64.921713  85.430228  75.541468  58.829260  25.219394  24.433515  56.960712  36.842266  37.329211  57.651283  31.764835   2.399059  12.265788  52.851308  95.102287  37.731710 -15.738236  26.445304  53.289494  51.378540  31.621787  56.626189  34.997296  42.924560  58.238726  26.612202  67.539505  54.520559  16.157166  82.281326  55.194756   0.816655  57.567925  36.392970 -14.369068  89.426977   5.464618   0.020291  28.578675  24.463000  67.788061  86.218412  56.553199 -15.148167   1.604842  54.744662  86.730559  41.719147  87.467129  49.933154 105.030992  85.857635 -68.404345  74.086752  64.408697   1.960013
